<svg xmlns="http://www.w3.org/2000/svg" version="1.1" xmlns:xlink="http://www.w3.org/1999/xlink" x="0" y="0" viewBox="0 0 60 60" style="enable-background:new 0 0 512 512" xml:space="preserve" class=""><g><path d="M38 16c-.675 0-1.341.035-2 .095V3a3 3 0 0 0-3-3H12.83a2.985 2.985 0 0 0-2.13.883L.883 10.7A2.985 2.985 0 0 0 0 12.83V45a3 3 0 0 0 3 3h15.414A22 22 0 1 0 38 16ZM11 3.414V9a2 2 0 0 1-2 2H3.414ZM3 46a1 1 0 0 1-1-1V13h7a4 4 0 0 0 4-4V2h20a1 1 0 0 1 1 1v13.371A21.981 21.981 0 0 0 17.512 46Zm35 12a20 20 0 1 1 20-20 20.023 20.023 0 0 1-20 20Z" fill="currentColor" opacity="1" data-original="#000000" class=""/><path d="M40.084 22.13a16.023 16.023 0 0 0-9.407 1.645 3.028 3.028 0 0 0-.84 4.666 3.049 3.049 0 0 0 3.645.643A9.913 9.913 0 0 1 38 28a10.015 10.015 0 0 1 9.968 9.192 2.815 2.815 0 0 0-1.1 4.452l2.1 2.433a2.684 2.684 0 0 0 4.049 0l2.1-2.431a2.815 2.815 0 0 0-1.149-4.473A16.033 16.033 0 0 0 40.084 22.13ZM53 39a.784.784 0 0 1 .735.472.8.8 0 0 1-.122.864l-2.1 2.429a.686.686 0 0 1-1.029 0l-2.1-2.43a.8.8 0 0 1-.122-.865A.784.784 0 0 1 49 39a1 1 0 0 0 1-1 12.013 12.013 0 0 0-12-12 11.883 11.883 0 0 0-5.421 1.3 1.037 1.037 0 0 1-1.255-.2.989.989 0 0 1-.224-.848.978.978 0 0 1 .5-.706A14.009 14.009 0 0 1 52 38a1 1 0 0 0 1 1ZM42.518 46.916A9.913 9.913 0 0 1 38 48a10.015 10.015 0 0 1-9.968-9.192 2.815 2.815 0 0 0 1.095-4.452l-2.1-2.434A2.683 2.683 0 0 0 25 31a2.684 2.684 0 0 0-2.025.923l-2.1 2.431a2.815 2.815 0 0 0 1.149 4.473A16.033 16.033 0 0 0 35.916 53.87a16.582 16.582 0 0 0 2.068.13 15.927 15.927 0 0 0 7.339-1.775 3.028 3.028 0 0 0 .84-4.666 3.045 3.045 0 0 0-3.645-.643ZM44.4 50.45A14.009 14.009 0 0 1 24 38a1 1 0 0 0-1-1 .784.784 0 0 1-.735-.472.8.8 0 0 1 .122-.864l2.1-2.429a.689.689 0 0 1 1.03 0l2.1 2.431a.8.8 0 0 1 .122.865A.784.784 0 0 1 27 37a1 1 0 0 0-1 1 12.013 12.013 0 0 0 12 12 11.883 11.883 0 0 0 5.421-1.3 1.034 1.034 0 0 1 1.255.2.989.989 0 0 1 .224.848.978.978 0 0 1-.5.702ZM7 22h13a1 1 0 0 0 0-2H7a1 1 0 0 0 0 2ZM16 16h13a1 1 0 0 0 0-2H16a1 1 0 0 0 0 2ZM7 28h9a1 1 0 0 0 0-2H7a1 1 0 0 0 0 2ZM14 32H7a1 1 0 0 0 0 2h7a1 1 0 0 0 0-2ZM13 38H7a1 1 0 0 0 0 2h6a1 1 0 0 0 0-2Z" fill="currentColor" opacity="1" data-original="#000000" class=""/></g></svg>