<svg xmlns="http://www.w3.org/2000/svg" version="1.1" xmlns:xlink="http://www.w3.org/1999/xlink" x="0" y="0" viewBox="0 0 152 152" style="enable-background:new 0 0 512 512" xml:space="preserve" class=""><g><g data-name="Layer 2"><g data-name="Color Icon"><g data-name="22.VK"><path fill="#1da2e0" d="M140 0H12A12 12 0 0 0 0 12v128a12 12 0 0 0 12 12h128a12 12 0 0 0 12-12V12a12 12 0 0 0-12-12z" opacity="1" data-original="#4c75a3" class=""/><path fill="#ffffff" fill-rule="evenodd" d="M75 103.77h5.86a5 5 0 0 0 2.68-1.17 4.34 4.34 0 0 0 .76-2.6s-.12-7.87 3.54-9 8.22 7.6 13.13 11c3.7 2.55 6.52 2 6.52 2l13.11-.18s6.86-.43 3.61-5.82c-.27-.44-1.9-4-9.75-11.28-8.22-7.63-7.12-6.39 2.78-19.59 6-8 8.44-12.94 7.69-15s-5.15-1.48-5.15-1.48l-14.76.1a3.38 3.38 0 0 0-1.91.33 4.18 4.18 0 0 0-1.3 1.59 85.71 85.71 0 0 1-5.45 11.5c-6.58 11.16-9.2 11.75-10.28 11.06-2.5-1.61-1.87-6.49-1.87-10 0-10.82 1.64-15.32-3.2-16.49a24.94 24.94 0 0 0-6.89-.74c-5.26 0-9.72 0-12.24 1.26-1.68.82-3 2.65-2.19 2.76a6.61 6.61 0 0 1 4.36 2.19c1.51 2.05 1.46 6.68 1.46 6.68s.86 12.73-2 14.31c-2 1.08-4.72-1.13-10.58-11.26A94.08 94.08 0 0 1 47.63 53a4.38 4.38 0 0 0-1.22-1.64 4.33 4.33 0 0 0-.75-.44 5.65 5.65 0 0 0-2.4-.47l-13.14.09s-2.11 0-2.88 1-.06 2.5-.06 2.5 11 25.69 23.42 38.64C62 104.54 75 103.77 75 103.77z" opacity="1" data-original="#ffffff" class=""/></g></g></g></g></svg>